<svg width="30" height="31" viewBox="0 0 30 31" fill="none" xmlns="http://www.w3.org/2000/svg">
<g clip-path="url(#clip0_65_49)">
<path d="M13.1317 18.2318L18.011 15.4095L13.1317 12.5872V18.2318Z" fill="#2F3035"/>
<path d="M15 0.344849C6.717 0.344849 0 7.0908 0 15.4095C0 23.7282 6.717 30.4742 15 30.4742C23.283 30.4742 30 23.7282 30 15.4095C30 7.0908 23.283 0.344849 15 0.344849ZM24.3727 15.4249C24.3727 15.4249 24.3727 18.4801 23.9868 19.9533C23.7705 20.7597 23.1374 21.3955 22.3345 21.6125C20.8676 22.0003 15 22.0003 15 22.0003C15 22.0003 9.14772 22.0003 7.66548 21.5971C6.86256 21.3801 6.22948 20.7441 6.01318 19.9377C5.62706 18.4801 5.62706 15.4095 5.62706 15.4095C5.62706 15.4095 5.62706 12.3546 6.01318 10.8813C6.22925 10.0749 6.8779 9.4235 7.66548 9.2065C9.13239 8.81872 15 8.81872 15 8.81872C15 8.81872 20.8676 8.81872 22.3345 9.22191C23.1374 9.4389 23.7705 10.0749 23.9868 10.8813C24.3883 12.3546 24.3727 15.4249 24.3727 15.4249Z" fill="#2F3035"/>
</g>
<defs>
<clipPath id="clip0_65_49">
<rect width="30" height="30.1293" fill="white" transform="translate(0 0.344849)"/>
</clipPath>
</defs>
</svg>
