<svg width="30" height="31" viewBox="0 0 30 31" fill="none" xmlns="http://www.w3.org/2000/svg">
<g clip-path="url(#clip0_65_52)">
<path d="M15.0048 7.67383C10.7511 7.67383 7.30731 11.1362 7.30731 15.4045C7.30731 19.6766 10.7548 23.1352 15.0048 23.1352C19.2586 23.1352 22.7023 19.6728 22.7023 15.4045C22.7023 11.1324 19.2548 7.67383 15.0048 7.67383ZM15.0048 20.4223C12.2436 20.4223 10.0086 18.1764 10.0086 15.4045C10.0086 12.6326 12.2448 10.3867 15.0048 10.3867C17.7648 10.3867 20.0011 12.6326 20.0011 15.4045C20.0023 18.1764 17.7661 20.4223 15.0048 20.4223Z" fill="#2F3035"/>
<path d="M21.1849 0.44077C18.4249 0.311465 11.5886 0.317742 8.82611 0.44077C6.39861 0.55501 4.25736 1.14379 2.53111 2.87748C-0.353893 5.77491 0.0148568 9.67917 0.0148568 15.405C0.0148568 21.2651 -0.310143 25.079 2.53111 27.9325C5.42736 30.84 9.37111 30.4596 15.0049 30.4596C20.7849 30.4596 22.7799 30.4634 24.8236 29.6687C27.6024 28.5853 29.6999 26.0909 29.9049 21.6104C30.0349 18.8372 30.0274 11.9728 29.9049 9.19836C29.6574 3.90941 26.8311 0.701891 21.1849 0.44077ZM25.5536 26.0155C23.6624 27.9149 21.0386 27.7455 14.9686 27.7455C8.71861 27.7455 6.21236 27.8384 4.38361 25.9967C2.27736 23.8914 2.65861 20.5107 2.65861 15.3849C2.65861 8.44889 1.94986 3.4537 8.88111 3.09717C10.4736 3.04068 10.9424 3.02185 14.9511 3.02185L15.0074 3.05951C21.6686 3.05951 26.8949 2.359 27.2086 9.31887C27.2799 10.9069 27.2961 11.384 27.2961 15.4037C27.2949 21.6079 27.4124 24.14 25.5536 26.0155Z" fill="#2F3035"/>
<path d="M23.0075 9.17526C24.0009 9.17526 24.8062 8.36646 24.8062 7.36876C24.8062 6.37105 24.0009 5.56226 23.0075 5.56226C22.0141 5.56226 21.2087 6.37105 21.2087 7.36876C21.2087 8.36646 22.0141 9.17526 23.0075 9.17526Z" fill="#2F3035"/>
</g>
<defs>
<clipPath id="clip0_65_52">
<rect width="30" height="30.1293" fill="white" transform="translate(0 0.344849)"/>
</clipPath>
</defs>
</svg>
