<svg width="30" height="31" viewBox="0 0 30 31" fill="none" xmlns="http://www.w3.org/2000/svg">
<path d="M24.8938 16.7C24.4088 16.0849 24.5475 15.8112 24.8938 15.2613C24.9 15.2551 28.9037 9.69872 29.3162 7.81438L29.3188 7.81313C29.5238 7.12643 29.3188 6.62177 28.3275 6.62177H25.0475C24.2125 6.62177 23.8275 7.05487 23.6213 7.53945C23.6213 7.53945 21.9513 11.5542 19.5887 14.1566C18.8263 14.9086 18.4738 15.1496 18.0575 15.1496C17.8525 15.1496 17.5338 14.9086 17.5338 14.2219V7.81313C17.5338 6.98959 17.3 6.62177 16.6087 6.62177H11.4513C10.9275 6.62177 10.6163 7.00591 10.6163 7.3637C10.6163 8.14455 11.7975 8.32407 11.92 10.521V15.2877C11.92 16.3322 11.7312 16.5243 11.3125 16.5243C10.1975 16.5243 7.49125 12.4932 5.8875 7.87966C5.56375 6.98457 5.2475 6.62302 4.40625 6.62302H1.125C0.18875 6.62302 0 7.05613 0 7.54071C0 8.39688 1.115 12.6539 5.185 18.278C7.8975 22.117 11.7175 24.1972 15.1925 24.1972C17.2812 24.1972 17.5363 23.7352 17.5363 22.9406C17.5363 19.2723 17.3475 18.9258 18.3937 18.9258C18.8787 18.9258 19.7137 19.1669 21.6637 21.0186C23.8925 23.2142 24.2588 24.1972 25.5063 24.1972H28.7862C29.7212 24.1972 30.195 23.7352 29.9225 22.8238C29.2987 20.9068 25.0838 16.9637 24.8938 16.7Z" fill="#2F3035"/>
</svg>
