<svg width="30" height="31" viewBox="0 0 30 31" fill="none" xmlns="http://www.w3.org/2000/svg">
<g clip-path="url(#clip0_65_36)">
<path d="M17.4186 30.2781C17.2936 30.2984 17.1682 30.3172 17.0423 30.3344C17.1682 30.3172 17.2936 30.2984 17.4186 30.2781Z" fill="#2F3035"/>
<path d="M17.7186 30.2266C17.6589 30.2375 17.5992 30.2476 17.5394 30.2579C17.5992 30.2476 17.6589 30.2375 17.7186 30.2266Z" fill="#2F3035"/>
<path d="M16.7072 30.3765C16.561 30.3929 16.4138 30.4076 16.2662 30.42C16.4138 30.4076 16.561 30.3929 16.7072 30.3765Z" fill="#2F3035"/>
<path d="M16.9954 30.3411C16.9252 30.3504 16.8544 30.3591 16.7839 30.3674C16.8544 30.3591 16.9252 30.3504 16.9954 30.3411Z" fill="#2F3035"/>
<path d="M18.127 30.1452C18.0744 30.1564 18.0215 30.1676 17.9686 30.1784C18.0215 30.1676 18.0744 30.1564 18.127 30.1452Z" fill="#2F3035"/>
<path d="M19.1405 29.8923C19.0979 29.9045 19.0553 29.9159 19.0128 29.9278C19.0553 29.9159 19.0979 29.9045 19.1405 29.8923Z" fill="#2F3035"/>
<path d="M18.834 29.9765C18.7878 29.9886 18.7413 30.001 18.6948 30.0127C18.7413 30.001 18.7878 29.9889 18.834 29.9765Z" fill="#2F3035"/>
<path d="M18.433 30.0771C18.384 30.0886 18.3346 30.0993 18.2852 30.1103C18.3346 30.0993 18.384 30.0886 18.433 30.0771Z" fill="#2F3035"/>
<path d="M16.2614 30.4206C16.1824 30.4272 16.1034 30.4332 16.0242 30.4384C16.1034 30.4332 16.1824 30.4272 16.2614 30.4206Z" fill="#2F3035"/>
<path d="M30 15.4095C30 7.0908 23.283 0.344849 15 0.344849C6.717 0.344849 0 7.0908 0 15.4095C0 23.7282 6.717 30.4742 15 30.4742C15.0881 30.4742 15.1758 30.4723 15.2637 30.4707V18.7435H12.041V14.9716H15.2637V12.1959C15.2637 8.97687 17.2204 7.22481 20.0796 7.22481C21.4487 7.22481 22.6257 7.32733 22.9688 7.37308V10.7374H20.9972C19.4417 10.7374 19.1405 11.4799 19.1405 12.5693V14.9716H22.8598L22.375 18.7435H19.1405V29.8921C25.4102 28.087 30 22.2858 30 15.4095Z" fill="#2F3035"/>
<path d="M15.9911 30.4406C15.835 30.4507 15.6782 30.4587 15.5209 30.464C15.6782 30.4587 15.835 30.4507 15.9911 30.4406Z" fill="#2F3035"/>
<path d="M15.5129 30.4645C15.4301 30.4672 15.347 30.4693 15.2639 30.4707C15.347 30.4693 15.4301 30.4672 15.5129 30.4645Z" fill="#2F3035"/>
</g>
<defs>
<clipPath id="clip0_65_36">
<rect width="30" height="30.1293" fill="white" transform="translate(0 0.344849)"/>
</clipPath>
</defs>
</svg>
